<svg width="18" height="17" viewBox="0 0 18 17" fill="none" xmlns="http://www.w3.org/2000/svg">
<path d="M2.33326 9.59355V15.0625H1.49997C1.22399 15.0625 1 15.2725 1 15.5312C1 15.79 1.22399 16 1.49997 16H12.4994C12.7754 16 12.9994 15.79 12.9994 15.5312C12.9994 15.2725 12.7754 15.0625 12.4994 15.0625H11.6794V10.973L12.4427 10.2479C12.4661 10.2248 12.4874 10.2004 12.5061 10.1736L14.5366 7.2366C14.7013 7.31848 14.8833 7.3666 15.0753 7.36723H15.0793C15.3906 7.36723 15.6832 7.25348 15.9039 7.0466L16.6585 6.33907C17.1138 5.91281 17.1138 5.21841 16.6585 4.79215L12.9547 1.32017C12.5001 0.893278 11.7594 0.893278 11.3048 1.32017L10.5715 2.00769C10.2602 2.29957 10.1669 2.71708 10.2829 3.08897L7.317 3.79524C6.1004 4.08588 5.08312 4.85153 4.52515 5.89781C4.22983 6.45845 4.07317 7.0791 4.07317 7.69349C4.07317 8.18913 4.1805 8.67102 4.36916 9.12478H2.83324C2.55725 9.12478 2.33326 9.33479 2.33326 9.59355ZM11.2781 2.67083C11.2781 2.67021 11.2781 2.67021 11.2781 2.67083L12.0114 1.98269C12.0434 1.95206 12.0861 1.93706 12.1288 1.93706C12.1714 1.93706 12.2141 1.95206 12.2467 1.98269L15.9506 5.45467C16.0159 5.51592 16.0159 5.61468 15.9506 5.67593L15.1959 6.38282C15.1539 6.42283 15.1039 6.42908 15.0779 6.42908H15.0773C15.0513 6.42908 15.0019 6.42283 14.9593 6.38282L11.2768 2.89084C11.2128 2.83021 11.2128 2.73146 11.2781 2.67083ZM5.07312 7.69349C5.07312 7.22285 5.19378 6.74534 5.42044 6.31532C5.84841 5.51405 6.62837 4.92653 7.56299 4.70402L10.9355 3.90025L13.784 6.60096L11.6941 9.62292L8.80693 12.3674C8.64027 12.523 8.45028 12.5555 8.32028 12.5555C8.08163 12.5555 7.86564 12.4399 7.74365 12.248C7.59032 12.0042 7.65299 11.6624 7.89431 11.4367L10.4468 9.03728C10.6168 8.87853 10.6415 8.62852 10.5075 8.44289L10.3995 8.29476C9.95553 7.71662 9.24624 7.39286 8.47628 7.42911C7.71432 7.46598 7.03302 7.8585 6.65371 8.47851L6.25706 9.12478H5.46643C5.21311 8.68665 5.07312 8.19913 5.07312 7.69349ZM8.94092 9.12478H7.40967L7.51966 8.94541C7.73232 8.59727 8.09963 8.38601 8.52694 8.36539C8.86892 8.34726 9.19024 8.45914 9.42689 8.6679L8.94092 9.12478ZM3.33321 10.0623H7.94364L7.18568 10.7748C6.61837 11.3074 6.49438 12.1099 6.88369 12.7274C7.18901 13.2074 7.72632 13.4943 8.32028 13.4943C8.77093 13.4943 9.19491 13.3305 9.51622 13.0299L10.6795 11.9242V15.0625H3.33321V10.0623Z" fill="#797A89"/>
<path d="M11.2781 2.67083C11.2781 2.67021 11.2781 2.67021 11.2781 2.67083ZM11.2781 2.67083L12.0114 1.98269C12.0434 1.95206 12.0861 1.93706 12.1288 1.93706C12.1714 1.93706 12.2141 1.95206 12.2467 1.98269L15.9506 5.45467C16.0159 5.51592 16.0159 5.61468 15.9506 5.67593L15.1959 6.38282C15.1539 6.42283 15.1039 6.42908 15.0779 6.42908H15.0773C15.0513 6.42908 15.0019 6.42283 14.9593 6.38282L11.2768 2.89084C11.2128 2.83021 11.2128 2.73146 11.2781 2.67083ZM2.33326 9.59355V15.0625H1.49997C1.22399 15.0625 1 15.2725 1 15.5312C1 15.79 1.22399 16 1.49997 16H12.4994C12.7754 16 12.9994 15.79 12.9994 15.5312C12.9994 15.2725 12.7754 15.0625 12.4994 15.0625H11.6794V10.973L12.4427 10.2479C12.4661 10.2248 12.4874 10.2004 12.5061 10.1736L14.5366 7.2366C14.7013 7.31848 14.8833 7.3666 15.0753 7.36723H15.0793C15.3906 7.36723 15.6832 7.25348 15.9039 7.0466L16.6585 6.33907C17.1138 5.91281 17.1138 5.21841 16.6585 4.79215L12.9547 1.32017C12.5001 0.893278 11.7594 0.893278 11.3048 1.32017L10.5715 2.00769C10.2602 2.29957 10.1669 2.71708 10.2829 3.08897L7.317 3.79524C6.1004 4.08588 5.08312 4.85153 4.52515 5.89781C4.22983 6.45845 4.07317 7.0791 4.07317 7.69349C4.07317 8.18913 4.1805 8.67102 4.36916 9.12478H2.83324C2.55725 9.12478 2.33326 9.33479 2.33326 9.59355ZM5.07312 7.69349C5.07312 7.22285 5.19378 6.74534 5.42044 6.31532C5.84841 5.51405 6.62837 4.92653 7.56299 4.70402L10.9355 3.90025L13.784 6.60096L11.6941 9.62293L8.80693 12.3674C8.64027 12.523 8.45028 12.5555 8.32029 12.5555C8.08163 12.5555 7.86564 12.4399 7.74365 12.248C7.59032 12.0042 7.65299 11.6624 7.89431 11.4367L10.4468 9.03728C10.6168 8.87853 10.6415 8.62852 10.5075 8.44289L10.3995 8.29476C9.95553 7.71662 9.24624 7.39286 8.47628 7.42911C7.71432 7.46598 7.03302 7.8585 6.65371 8.47851L6.25706 9.12478H5.46643C5.21311 8.68665 5.07312 8.19913 5.07312 7.69349ZM8.94092 9.12478H7.40967L7.51966 8.9454C7.73232 8.59727 8.09963 8.38601 8.52694 8.36539C8.86892 8.34726 9.19024 8.45914 9.42689 8.6679L8.94092 9.12478ZM3.33321 10.0623H7.94364L7.18568 10.7748C6.61837 11.3074 6.49438 12.1099 6.88369 12.7274C7.18901 13.2074 7.72632 13.4943 8.32029 13.4943C8.77093 13.4943 9.19491 13.3305 9.51622 13.0299L10.6795 11.9242V15.0625H3.33321V10.0623Z" stroke="#797A89" stroke-width="0.3"/>
</svg>
